<svg xmlns="http://www.w3.org/2000/svg" xmlns:xlink="http://www.w3.org/1999/xlink" id="visual" version="1.1" viewBox="0 0 900 246"><path d="M0 189L113 189L113 230L225 230L225 179L338 179L338 236L450 236L450 165L563 165L563 199L675 199L675 233L788 233L788 246L900 246L900 188L900 0L900 0L788 0L788 0L675 0L675 0L563 0L563 0L450 0L450 0L338 0L338 0L225 0L225 0L113 0L113 0L0 0Z" fill="#001e36"/><path d="M0 140L113 140L113 110L225 110L225 112L338 112L338 146L450 146L450 141L563 141L563 144L675 144L675 169L788 169L788 125L900 125L900 135L900 0L900 0L788 0L788 0L675 0L675 0L563 0L563 0L450 0L450 0L338 0L338 0L225 0L225 0L113 0L113 0L0 0Z" fill="#082747"/><path d="M0 96L113 96L113 61L225 61L225 87L338 87L338 52L450 52L450 50L563 50L563 42L675 42L675 74L788 74L788 101L900 101L900 97L900 0L900 0L788 0L788 0L675 0L675 0L563 0L563 0L450 0L450 0L338 0L338 0L225 0L225 0L113 0L113 0L0 0Z" fill="#183058"/></svg>