<svg id="visual" viewBox="0 0 900 600" width="900" height="600" xmlns="http://www.w3.org/2000/svg" xmlns:xlink="http://www.w3.org/1999/xlink" version="1.1"><path d="M0 79L13.7 80C27.3 81 54.7 83 82 79C109.3 75 136.7 65 163.8 69C191 73 218 91 245.2 92C272.3 93 299.7 77 327 79C354.3 81 381.7 101 409 102C436.3 103 463.7 85 491 75C518.3 65 545.7 63 573 62C600.3 61 627.7 61 654.8 69C682 77 709 93 736.2 92C763.3 91 790.7 73 818 66C845.3 59 872.7 63 886.3 65L900 67L900 0L886.3 0C872.7 0 845.3 0 818 0C790.7 0 763.3 0 736.2 0C709 0 682 0 654.8 0C627.7 0 600.3 0 573 0C545.7 0 518.3 0 491 0C463.7 0 436.3 0 409 0C381.7 0 354.3 0 327 0C299.7 0 272.3 0 245.2 0C218 0 191 0 163.8 0C136.7 0 109.3 0 82 0C54.7 0 27.3 0 13.7 0L0 0Z" fill="#27496d"></path><path d="M0 157L13.7 166C27.3 175 54.7 193 82 192C109.3 191 136.7 171 163.8 170C191 169 218 187 245.2 200C272.3 213 299.7 221 327 221C354.3 221 381.7 213 409 208C436.3 203 463.7 201 491 194C518.3 187 545.7 175 573 164C600.3 153 627.7 143 654.8 153C682 163 709 193 736.2 195C763.3 197 790.7 171 818 161C845.3 151 872.7 157 886.3 160L900 163L900 65L886.3 63C872.7 61 845.3 57 818 64C790.7 71 763.3 89 736.2 90C709 91 682 75 654.8 67C627.7 59 600.3 59 573 60C545.7 61 518.3 63 491 73C463.7 83 436.3 101 409 100C381.7 99 354.3 79 327 77C299.7 75 272.3 91 245.2 90C218 89 191 71 163.8 67C136.7 63 109.3 73 82 77C54.7 81 27.3 79 13.7 78L0 77Z" fill="#214066"></path><path d="M0 253L13.7 260C27.3 267 54.7 281 82 280C109.3 279 136.7 263 163.8 264C191 265 218 283 245.2 287C272.3 291 299.7 281 327 274C354.3 267 381.7 263 409 266C436.3 269 463.7 279 491 271C518.3 263 545.7 237 573 224C600.3 211 627.7 211 654.8 228C682 245 709 279 736.2 283C763.3 287 790.7 261 818 251C845.3 241 872.7 247 886.3 250L900 253L900 161L886.3 158C872.7 155 845.3 149 818 159C790.7 169 763.3 195 736.2 193C709 191 682 161 654.8 151C627.7 141 600.3 151 573 162C545.7 173 518.3 185 491 192C463.7 199 436.3 201 409 206C381.7 211 354.3 219 327 219C299.7 219 272.3 211 245.2 198C218 185 191 167 163.8 168C136.7 169 109.3 189 82 190C54.7 191 27.3 173 13.7 164L0 155Z" fill="#1c385f"></path><path d="M0 439L13.7 446C27.3 453 54.7 467 82 475C109.3 483 136.7 485 163.8 485C191 485 218 483 245.2 474C272.3 465 299.7 449 327 430C354.3 411 381.7 389 409 394C436.3 399 463.7 431 491 426C518.3 421 545.7 379 573 381C600.3 383 627.7 429 654.8 457C682 485 709 495 736.2 487C763.3 479 790.7 453 818 449C845.3 445 872.7 463 886.3 472L900 481L900 251L886.3 248C872.7 245 845.3 239 818 249C790.7 259 763.3 285 736.2 281C709 277 682 243 654.8 226C627.7 209 600.3 209 573 222C545.7 235 518.3 261 491 269C463.7 277 436.3 267 409 264C381.7 261 354.3 265 327 272C299.7 279 272.3 289 245.2 285C218 281 191 263 163.8 262C136.7 261 109.3 277 82 278C54.7 279 27.3 265 13.7 258L0 251Z" fill="#183058"></path><path d="M0 601L13.7 601C27.3 601 54.7 601 82 601C109.3 601 136.7 601 163.8 601C191 601 218 601 245.2 601C272.3 601 299.7 601 327 601C354.3 601 381.7 601 409 601C436.3 601 463.7 601 491 601C518.3 601 545.7 601 573 601C600.3 601 627.7 601 654.8 601C682 601 709 601 736.2 601C763.3 601 790.7 601 818 601C845.3 601 872.7 601 886.3 601L900 601L900 479L886.3 470C872.7 461 845.3 443 818 447C790.7 451 763.3 477 736.2 485C709 493 682 483 654.8 455C627.7 427 600.3 381 573 379C545.7 377 518.3 419 491 424C463.7 429 436.3 397 409 392C381.7 387 354.3 409 327 428C299.7 447 272.3 463 245.2 472C218 481 191 483 163.8 483C136.7 483 109.3 481 82 473C54.7 465 27.3 451 13.7 444L0 437Z" fill="#142850"></path></svg>