<svg xmlns="http://www.w3.org/2000/svg" xmlns:xlink="http://www.w3.org/1999/xlink" id="visual" version="1.1" viewBox="0 320 960 221"><path d="M0 372L137 320L274 402L411 331L549 343L686 401L823 350L960 378L960 541L823 541L686 541L549 541L411 541L274 541L137 541L0 541Z" fill="#ffd460"/><path d="M0 393L137 430L274 365L411 377L549 405L686 356L823 413L960 355L960 541L823 541L686 541L549 541L411 541L274 541L137 541L0 541Z" fill="#ffb551"/><path d="M0 397L137 394L274 404L411 442L549 428L686 457L823 447L960 452L960 541L823 541L686 541L549 541L411 541L274 541L137 541L0 541Z" fill="#fe954c"/><path d="M0 457L137 476L274 434L411 465L549 486L686 481L823 461L960 443L960 541L823 541L686 541L549 541L411 541L274 541L137 541L0 541Z" fill="#f7754e"/><path d="M0 495L137 495L274 481L411 487L549 480L686 497L823 508L960 492L960 541L823 541L686 541L549 541L411 541L274 541L137 541L0 541Z" fill="#ea5455"/></svg>