<svg xmlns="http://www.w3.org/2000/svg" xmlns:xlink="http://www.w3.org/1999/xlink" id="visual" version="1.1" viewBox="0 315 960 226"><path d="M0 392L137 399L274 315L411 368L549 399L686 317L823 379L960 359L960 541L823 541L686 541L549 541L411 541L274 541L137 541L0 541Z" fill="#9ec8b9"/><path d="M0 383L137 366L274 361L411 430L549 368L686 376L823 354L960 401L960 541L823 541L686 541L549 541L411 541L274 541L137 541L0 541Z" fill="#7ba49a"/><path d="M0 424L137 439L274 408L411 429L549 432L686 460L823 427L960 408L960 541L823 541L686 541L549 541L411 541L274 541L137 541L0 541Z" fill="#59827b"/><path d="M0 462L137 443L274 482L411 460L549 474L686 479L823 482L960 441L960 541L823 541L686 541L549 541L411 541L274 541L137 541L0 541Z" fill="#39615e"/><path d="M0 480L137 472L274 505L411 497L549 493L686 472L823 479L960 480L960 541L823 541L686 541L549 541L411 541L274 541L137 541L0 541Z" fill="#1b4242"/></svg>