<svg xmlns="http://www.w3.org/2000/svg" xmlns:xlink="http://www.w3.org/1999/xlink" id="visual" version="1.1" viewBox="0 0 900 306"><path d="M0 299L64 299L64 278L129 278L129 252L193 252L193 302L257 302L257 252L321 252L321 236L386 236L386 284L450 284L450 243L514 243L514 303L579 303L579 267L643 267L643 257L707 257L707 244L771 244L771 306L836 306L836 275L900 275L900 211L900 0L900 0L836 0L836 0L771 0L771 0L707 0L707 0L643 0L643 0L579 0L579 0L514 0L514 0L450 0L450 0L386 0L386 0L321 0L321 0L257 0L257 0L193 0L193 0L129 0L129 0L64 0L64 0L0 0Z" fill="#00adb5"/><path d="M0 216L64 216L64 217L129 217L129 154L193 154L193 171L257 171L257 224L321 224L321 188L386 188L386 167L450 167L450 152L514 152L514 234L579 234L579 199L643 199L643 161L707 161L707 199L771 199L771 192L836 192L836 167L900 167L900 219L900 0L900 0L836 0L836 0L771 0L771 0L707 0L707 0L643 0L643 0L579 0L579 0L514 0L514 0L450 0L450 0L386 0L386 0L321 0L321 0L257 0L257 0L193 0L193 0L129 0L129 0L64 0L64 0L0 0Z" fill="#188689"/><path d="M0 102L64 102L64 105L129 105L129 109L193 109L193 170L257 170L257 121L321 121L321 170L386 170L386 161L450 161L450 109L514 109L514 132L579 132L579 122L643 122L643 169L707 169L707 127L771 127L771 169L836 169L836 128L900 128L900 127L900 0L900 0L836 0L836 0L771 0L771 0L707 0L707 0L643 0L643 0L579 0L579 0L514 0L514 0L450 0L450 0L386 0L386 0L321 0L321 0L257 0L257 0L193 0L193 0L129 0L129 0L64 0L64 0L0 0Z" fill="#1c6062"/><path d="M0 89L64 89L64 79L129 79L129 59L193 59L193 105L257 105L257 99L321 99L321 74L386 74L386 79L450 79L450 52L514 52L514 64L579 64L579 74L643 74L643 81L707 81L707 106L771 106L771 101L836 101L836 89L900 89L900 107L900 0L900 0L836 0L836 0L771 0L771 0L707 0L707 0L643 0L643 0L579 0L579 0L514 0L514 0L450 0L450 0L386 0L386 0L321 0L321 0L257 0L257 0L193 0L193 0L129 0L129 0L64 0L64 0L0 0Z" fill="#183d3d"/></svg>