<svg xmlns="http://www.w3.org/2000/svg" xmlns:xlink="http://www.w3.org/1999/xlink" id="visual" version="1.1" viewBox="0 0 900 223"><path d="M0 168L21.5 169.5C43 171 86 174 128.8 172.3C171.7 170.7 214.3 164.3 257.2 164.7C300 165 343 172 385.8 186.5C428.7 201 471.3 223 514.2 223C557 223 600 201 642.8 198.3C685.7 195.7 728.3 212.3 771.2 213.5C814 214.7 857 200.3 878.5 193.2L900 186L900 0L878.5 0C857 0 814 0 771.2 0C728.3 0 685.7 0 642.8 0C600 0 557 0 514.2 0C471.3 0 428.7 0 385.8 0C343 0 300 0 257.2 0C214.3 0 171.7 0 128.8 0C86 0 43 0 21.5 0L0 0Z" fill="#22092c"/><path d="M0 135L21.5 144.8C43 154.7 86 174.3 128.8 185.7C171.7 197 214.3 200 257.2 191.3C300 182.7 343 162.3 385.8 155.5C428.7 148.7 471.3 155.3 514.2 166.2C557 177 600 192 642.8 197.7C685.7 203.3 728.3 199.7 771.2 192.2C814 184.7 857 173.3 878.5 167.7L900 162L900 0L878.5 0C857 0 814 0 771.2 0C728.3 0 685.7 0 642.8 0C600 0 557 0 514.2 0C471.3 0 428.7 0 385.8 0C343 0 300 0 257.2 0C214.3 0 171.7 0 128.8 0C86 0 43 0 21.5 0L0 0Z" fill="#17193a"/><path d="M0 148L21.5 148.2C43 148.3 86 148.7 128.8 141.5C171.7 134.3 214.3 119.7 257.2 118.2C300 116.7 343 128.3 385.8 137.8C428.7 147.3 471.3 154.7 514.2 158.8C557 163 600 164 642.8 157.7C685.7 151.3 728.3 137.7 771.2 133C814 128.3 857 132.7 878.5 134.8L900 137L900 0L878.5 0C857 0 814 0 771.2 0C728.3 0 685.7 0 642.8 0C600 0 557 0 514.2 0C471.3 0 428.7 0 385.8 0C343 0 300 0 257.2 0C214.3 0 171.7 0 128.8 0C86 0 43 0 21.5 0L0 0Z" fill="#062542"/><path d="M0 120L21.5 114C43 108 86 96 128.8 95.7C171.7 95.3 214.3 106.7 257.2 111C300 115.3 343 112.7 385.8 111.8C428.7 111 471.3 112 514.2 116C557 120 600 127 642.8 130.3C685.7 133.7 728.3 133.3 771.2 128.5C814 123.7 857 114.3 878.5 109.7L900 105L900 0L878.5 0C857 0 814 0 771.2 0C728.3 0 685.7 0 642.8 0C600 0 557 0 514.2 0C471.3 0 428.7 0 385.8 0C343 0 300 0 257.2 0C214.3 0 171.7 0 128.8 0C86 0 43 0 21.5 0L0 0Z" fill="#003045"/><path d="M0 59L21.5 59.2C43 59.3 86 59.7 128.8 65.3C171.7 71 214.3 82 257.2 86C300 90 343 87 385.8 86.7C428.7 86.3 471.3 88.7 514.2 84C557 79.3 600 67.7 642.8 61.8C685.7 56 728.3 56 771.2 57.8C814 59.7 857 63.3 878.5 65.2L900 67L900 0L878.5 0C857 0 814 0 771.2 0C728.3 0 685.7 0 642.8 0C600 0 557 0 514.2 0C471.3 0 428.7 0 385.8 0C343 0 300 0 257.2 0C214.3 0 171.7 0 128.8 0C86 0 43 0 21.5 0L0 0Z" fill="#033a44"/><path d="M0 38L21.5 42C43 46 86 54 128.8 53.8C171.7 53.7 214.3 45.3 257.2 45.3C300 45.3 343 53.7 385.8 58C428.7 62.3 471.3 62.7 514.2 56.8C557 51 600 39 642.8 36.7C685.7 34.3 728.3 41.7 771.2 42.3C814 43 857 37 878.5 34L900 31L900 0L878.5 0C857 0 814 0 771.2 0C728.3 0 685.7 0 642.8 0C600 0 557 0 514.2 0C471.3 0 428.7 0 385.8 0C343 0 300 0 257.2 0C214.3 0 171.7 0 128.8 0C86 0 43 0 21.5 0L0 0Z" fill="#1b4242"/></svg>